<?xml version="1.0" encoding="UTF-8" standalone="no"?><!DOCTYPE svg PUBLIC "-//W3C//DTD SVG 1.1//EN" "http://www.w3.org/Graphics/SVG/1.1/DTD/svg11.dtd"><svg xmlns="http://www.w3.org/2000/svg" version="1.1" viewBox="0.00 0.00 102.00 33.00"><g stroke-width="2.00" fill="none" stroke-linecap="butt"><path stroke="#809598" vector-effect="non-scaling-stroke" d="
  M 95.42 10.36
  L 95.80 10.52
  Q 96.53 10.81 96.41 10.04
  Q 96.35 9.66 96.07 9.41
  Q 95.93 9.29 95.75 9.22
  Q 92.59 7.98 91.24 11.17
  Q 90.97 11.80 91.32 12.39
  C 92.05 13.60 93.17 15.29 94.83 15.08
  Q 95.90 14.94 96.49 13.92
  Q 97.34 12.47 95.99 13.47
  Q 95.02 14.18 93.84 14.00
  A 0.65 0.65 0.0 0 1 93.53 12.86
  Q 94.23 12.30 95.14 12.51
  Q 96.24 12.78 95.68 11.80
  L 95.08 10.75
  Q 94.68 10.06 95.42 10.36"/><path stroke="#809598" vector-effect="non-scaling-stroke" d="
  M 21.11 32.24
  Q 27.27 31.06 26.58 25.00
  C 26.16 21.29 16.76 18.09 13.31 17.19
  C 12.63 17.02 12.01 16.38 11.78 15.72
  A 0.83 0.83 0.0 0 1 12.21 14.70
  C 14.33 13.68 21.00 12.96 20.50 17.09
  Q 20.47 17.34 20.73 17.34
  L 25.55 17.23
  Q 25.84 17.23 25.80 16.94
  Q 25.03 11.03 19.94 9.83
  C 16.05 8.91 10.15 8.65 7.59 12.47
  C 4.85 16.56 8.25 20.08 12.06 21.53
  Q 15.69 22.90 19.15 24.07
  Q 20.71 24.60 21.42 26.04
  A 1.26 1.26 0.0 0 1 20.62 27.80
  Q 16.38 28.94 12.54 27.46
  Q 12.03 27.26 11.77 26.77
  Q 11.08 25.52 10.95 24.20
  Q 10.87 23.35 10.02 23.45
  Q 7.97 23.71 5.93 23.35
  Q 5.14 23.21 5.45 23.95
  Q 5.97 25.17 6.10 26.56
  C 6.74 33.34 16.59 33.11 21.11 32.24"/><path stroke="#809598" vector-effect="non-scaling-stroke" d="
  M 51.46 21.04
  A 11.88 11.88 0.0 0 0 39.58 9.16
  A 11.88 11.88 0.0 0 0 27.70 21.04
  A 11.88 11.88 0.0 0 0 39.58 32.92
  A 11.88 11.88 0.0 0 0 51.46 21.04"/><path stroke="#809598" vector-effect="non-scaling-stroke" d="
  M 60.75 14.75
  L 60.75 32.48
  Q 60.75 32.77 61.04 32.78
  L 65.57 32.86
  A 0.43 0.43 0.0 0 0 66.00 32.43
  L 66.00 12.77
  Q 66.00 9.54 62.77 9.53
  L 52.51 9.47
  A 0.26 0.25 -0.0 0 0 52.25 9.72
  L 52.25 14.02
  Q 52.25 14.30 52.52 14.30
  L 60.25 14.24
  Q 60.75 14.24 60.75 14.75"/><path stroke="#809598" vector-effect="non-scaling-stroke" d="
  M 91.3750 19.7169
  A 10.58 10.58 0.0 0 0 80.5758 9.3608
  L 78.4962 9.4043
  A 10.58 10.58 0.0 0 0 68.1401 20.2036
  L 68.1850 22.3431
  A 10.58 10.58 0.0 0 0 78.9842 32.6992
  L 81.0638 32.6557
  A 10.58 10.58 0.0 0 0 91.4199 21.8564
  L 91.3750 19.7169"/><path stroke="#809598" vector-effect="non-scaling-stroke" d="
  M 93.94 10.69
  Q 94.06 10.59 94.17 10.46
  Q 94.37 10.23 94.06 10.26
  Q 92.59 10.44 92.01 11.91
  Q 91.89 12.19 92.17 12.31
  L 92.41 12.42
  Q 92.81 12.59 92.98 12.19
  Q 93.27 11.51 93.71 10.93
  Q 93.81 10.79 93.94 10.69"/><path stroke="#809598" vector-effect="non-scaling-stroke" d="
  M 45.9169 19.7433
  A 5.82 5.82 0.0 0 0 40.1274 13.8929
  L 39.0674 13.8873
  A 5.82 5.82 0.0 0 0 33.2171 19.6768
  L 33.2031 22.3367
  A 5.82 5.82 0.0 0 0 38.9926 28.1871
  L 40.0526 28.1927
  A 5.82 5.82 0.0 0 0 45.9029 22.4032
  L 45.9169 19.7433"/><path stroke="#809598" vector-effect="non-scaling-stroke" d="
  M 86.19 19.74
  A 5.83 5.83 0.0 0 0 80.36 13.91
  L 79.28 13.91
  A 5.83 5.83 0.0 0 0 73.45 19.74
  L 73.45 22.36
  A 5.83 5.83 0.0 0 0 79.28 28.19
  L 80.36 28.19
  A 5.83 5.83 0.0 0 0 86.19 22.36
  L 86.19 19.74"/></g><path fill="#ffffff" d="
  M 0.00 0.00
  L 102.00 0.00
  L 102.00 43.00
  L 0.00 43.00
  L 0.00 0.00
  Z
  M 95.42 10.36
  L 95.80 10.52
  Q 96.53 10.81 96.41 10.04
  Q 96.35 9.66 96.07 9.41
  Q 95.93 9.29 95.75 9.22
  Q 92.59 7.98 91.24 11.17
  Q 90.97 11.80 91.32 12.39
  C 92.05 13.60 93.17 15.29 94.83 15.08
  Q 95.90 14.94 96.49 13.92
  Q 97.34 12.47 95.99 13.47
  Q 95.02 14.18 93.84 14.00
  A 0.65 0.65 0.0 0 1 93.53 12.86
  Q 94.23 12.30 95.14 12.51
  Q 96.24 12.78 95.68 11.80
  L 95.08 10.75
  Q 94.68 10.06 95.42 10.36
  Z
  M 21.11 32.24
  Q 27.27 31.06 26.58 25.00
  C 26.16 21.29 16.76 18.09 13.31 17.19
  C 12.63 17.02 12.01 16.38 11.78 15.72
  A 0.83 0.83 0.0 0 1 12.21 14.70
  C 14.33 13.68 21.00 12.96 20.50 17.09
  Q 20.47 17.34 20.73 17.34
  L 25.55 17.23
  Q 25.84 17.23 25.80 16.94
  Q 25.03 11.03 19.94 9.83
  C 16.05 8.91 10.15 8.65 7.59 12.47
  C 4.85 16.56 8.25 20.08 12.06 21.53
  Q 15.69 22.90 19.15 24.07
  Q 20.71 24.60 21.42 26.04
  A 1.26 1.26 0.0 0 1 20.62 27.80
  Q 16.38 28.94 12.54 27.46
  Q 12.03 27.26 11.77 26.77
  Q 11.08 25.52 10.95 24.20
  Q 10.87 23.35 10.02 23.45
  Q 7.97 23.71 5.93 23.35
  Q 5.14 23.21 5.45 23.95
  Q 5.97 25.17 6.10 26.56
  C 6.74 33.34 16.59 33.11 21.11 32.24
  Z
  M 51.46 21.04
  A 11.88 11.88 0.0 0 0 39.58 9.16
  A 11.88 11.88 0.0 0 0 27.70 21.04
  A 11.88 11.88 0.0 0 0 39.58 32.92
  A 11.88 11.88 0.0 0 0 51.46 21.04
  Z
  M 60.75 14.75
  L 60.75 32.48
  Q 60.75 32.77 61.04 32.78
  L 65.57 32.86
  A 0.43 0.43 0.0 0 0 66.00 32.43
  L 66.00 12.77
  Q 66.00 9.54 62.77 9.53
  L 52.51 9.47
  A 0.26 0.25 -0.0 0 0 52.25 9.72
  L 52.25 14.02
  Q 52.25 14.30 52.52 14.30
  L 60.25 14.24
  Q 60.75 14.24 60.75 14.75
  Z
  M 91.3750 19.7169
  A 10.58 10.58 0.0 0 0 80.5758 9.3608
  L 78.4962 9.4043
  A 10.58 10.58 0.0 0 0 68.1401 20.2036
  L 68.1850 22.3431
  A 10.58 10.58 0.0 0 0 78.9842 32.6992
  L 81.0638 32.6557
  A 10.58 10.58 0.0 0 0 91.4199 21.8564
  L 91.3750 19.7169
  Z"/><path fill="#002b31" d="
  M 95.08 10.75
  L 95.68 11.80
  Q 96.24 12.78 95.14 12.51
  Q 94.23 12.30 93.53 12.86
  A 0.65 0.65 0.0 0 0 93.84 14.00
  Q 95.02 14.18 95.99 13.47
  Q 97.34 12.47 96.49 13.92
  Q 95.90 14.94 94.83 15.08
  C 93.17 15.29 92.05 13.60 91.32 12.39
  Q 90.97 11.80 91.24 11.17
  Q 92.59 7.98 95.75 9.22
  Q 95.93 9.29 96.07 9.41
  Q 96.35 9.66 96.41 10.04
  Q 96.53 10.81 95.80 10.52
  L 95.42 10.36
  Q 94.68 10.06 95.08 10.75
  Z
  M 93.94 10.69
  Q 94.06 10.59 94.17 10.46
  Q 94.37 10.23 94.06 10.26
  Q 92.59 10.44 92.01 11.91
  Q 91.89 12.19 92.17 12.31
  L 92.41 12.42
  Q 92.81 12.59 92.98 12.19
  Q 93.27 11.51 93.71 10.93
  Q 93.81 10.79 93.94 10.69
  Z"/><path fill="#002b31" d="
  M 21.11 32.24
  C 16.59 33.11 6.74 33.34 6.10 26.56
  Q 5.97 25.17 5.45 23.95
  Q 5.14 23.21 5.93 23.35
  Q 7.97 23.71 10.02 23.45
  Q 10.87 23.35 10.95 24.20
  Q 11.08 25.52 11.77 26.77
  Q 12.03 27.26 12.54 27.46
  Q 16.38 28.94 20.62 27.80
  A 1.26 1.26 0.0 0 0 21.42 26.04
  Q 20.71 24.60 19.15 24.07
  Q 15.69 22.90 12.06 21.53
  C 8.25 20.08 4.85 16.56 7.59 12.47
  C 10.15 8.65 16.05 8.91 19.94 9.83
  Q 25.03 11.03 25.80 16.94
  Q 25.84 17.23 25.55 17.23
  L 20.73 17.34
  Q 20.47 17.34 20.50 17.09
  C 21.00 12.96 14.33 13.68 12.21 14.70
  A 0.83 0.83 0.0 0 0 11.78 15.72
  C 12.01 16.38 12.63 17.02 13.31 17.19
  C 16.76 18.09 26.16 21.29 26.58 25.00
  Q 27.27 31.06 21.11 32.24
  Z"/><path fill="#002b31" d="
  M 51.46 21.04
  A 11.88 11.88 0.0 0 1 39.58 32.92
  A 11.88 11.88 0.0 0 1 27.70 21.04
  A 11.88 11.88 0.0 0 1 39.58 9.16
  A 11.88 11.88 0.0 0 1 51.46 21.04
  Z
  M 45.9169 19.7433
  A 5.82 5.82 0.0 0 0 40.1274 13.8929
  L 39.0674 13.8873
  A 5.82 5.82 0.0 0 0 33.2171 19.6768
  L 33.2031 22.3367
  A 5.82 5.82 0.0 0 0 38.9926 28.1871
  L 40.0526 28.1927
  A 5.82 5.82 0.0 0 0 45.9029 22.4032
  L 45.9169 19.7433
  Z"/><path fill="#002b31" d="
  M 60.25 14.24
  L 52.52 14.30
  Q 52.25 14.30 52.25 14.02
  L 52.25 9.72
  A 0.26 0.25 -0.0 0 1 52.51 9.47
  L 62.77 9.53
  Q 66.00 9.54 66.00 12.77
  L 66.00 32.43
  A 0.43 0.43 0.0 0 1 65.57 32.86
  L 61.04 32.78
  Q 60.75 32.77 60.75 32.48
  L 60.75 14.75
  Q 60.75 14.24 60.25 14.24
  Z"/><path fill="#002b31" d="
  M 91.4199 21.8564
  A 10.58 10.58 0.0 0 1 81.0638 32.6557
  L 78.9842 32.6992
  A 10.58 10.58 0.0 0 1 68.1850 22.3431
  L 68.1401 20.2036
  A 10.58 10.58 0.0 0 1 78.4962 9.4043
  L 80.5758 9.3608
  A 10.58 10.58 0.0 0 1 91.3750 19.7169
  L 91.4199 21.8564
  Z
  M 86.19 19.74
  A 5.83 5.83 0.0 0 0 80.36 13.91
  L 79.28 13.91
  A 5.83 5.83 0.0 0 0 73.45 19.74
  L 73.45 22.36
  A 5.83 5.83 0.0 0 0 79.28 28.19
  L 80.36 28.19
  A 5.83 5.83 0.0 0 0 86.19 22.36
  L 86.19 19.74
  Z"/><path fill="#ffffff" d="
  M 93.71 10.93
  Q 93.27 11.51 92.98 12.19
  Q 92.81 12.59 92.41 12.42
  L 92.17 12.31
  Q 91.89 12.19 92.01 11.91
  Q 92.59 10.44 94.06 10.26
  Q 94.37 10.23 94.17 10.46
  Q 94.06 10.59 93.94 10.69
  Q 93.81 10.79 93.71 10.93
  Z"/><rect fill="#ffffff" x="-6.35" y="-7.15" transform="translate(39.56,21.04) rotate(0.3)" width="12.70" height="14.30" rx="5.82"/><rect fill="#ffffff" x="73.45" y="13.91" width="12.74" height="14.28" rx="5.83"/></svg>