<!-- MySVGComponent.svg -->
<svg width="160" height="24" viewBox="0 0 160 24" fill="none" xmlns="http://www.w3.org/2000/svg">
  <path d="M16.4884 31.6185C5.38079 31.6185 1.23077 27.1117 1.23077 19.3214H8.22061C8.22061 24.0278 10.5828 25.515 16.7078 25.515C21.2257 25.515 22.6973 24.4656 22.6973 22.8109C22.6973 20.5833 18.9345 19.5918 14.4295 18.053C7.91727 15.8769 2.62487 14.1321 2.62487 8.11228C2.62487 2.87793 6.78134 0 14.7393 0C24.1817 0 28.4221 4.79655 28.4221 10.9001H21.4258C21.4258 7.15297 18.5408 6.10353 14.7393 6.10353C11.5897 6.10353 9.62116 6.8053 9.62116 8.37625C9.62116 9.76692 10.3634 10.3077 15.3073 11.9495C20.9869 13.881 29.6871 16.3082 29.6871 22.7208C29.6871 28.0002 25.976 31.6185 16.4884 31.6185Z" />
  
  <path d="M46.7544 0C56.5066 0 62.4509 6.84393 62.4509 15.7867C62.4509 24.7296 56.5066 31.6185 46.7544 31.6185C37.0022 31.6185 31.0192 24.7746 31.0192 15.7867C31.0192 6.79886 36.9635 0 46.7544 0ZM46.7544 25.515C52.5632 25.515 55.4546 21.7164 55.4546 15.7867C55.4546 9.85706 52.5696 6.12927 46.7544 6.12927C40.9392 6.12927 38.0091 9.92788 38.0091 15.7867C38.0091 21.6456 40.9392 25.515 46.7544 25.515Z" />
  
  <path d="M78.2472 0.00110711C80.6481 -0.043961 82.0035 1.28877 82.0035 3.66451V31.1818H75.0137V6.3364H63.5769V0.00110711H78.2472Z" />
  
  <path d="M100.617 0C110.362 0 116.313 6.84393 116.313 15.7867C116.313 24.7296 110.362 31.6185 100.617 31.6185C90.8709 31.6185 84.875 24.7746 84.875 15.7867C84.875 6.79886 90.8193 0 100.617 0ZM100.617 25.515C106.425 25.515 109.317 21.7164 109.317 15.7867C109.317 9.85706 106.432 6.12927 100.617 6.12927C94.8015 6.12927 91.8907 9.92144 91.8907 15.7867C91.8907 21.652 94.8015 25.515 100.617 25.515Z" />
</svg>
